<mxfile host="app.diagrams.net" agent="Mozilla/5.0 (Macintosh; Intel Mac OS X 10_15_7) AppleWebKit/605.1.15 (KHTML, like Gecko) Version/18.3 Safari/605.1.15" version="26.0.14">
  <diagram name="Page-1" id="HlY9NP5n5z03xmbmRGF0">
    <mxGraphModel dx="1229" dy="718" grid="1" gridSize="10" guides="1" tooltips="1" connect="1" arrows="1" fold="1" page="1" pageScale="1" pageWidth="827" pageHeight="1169" math="0" shadow="0">
      <root>
        <mxCell id="0" />
        <mxCell id="1" parent="0" />
        <mxCell id="sI_AmpI1C_WUdq5VHhW1-1" value="Пользователь" style="shape=umlActor;verticalLabelPosition=bottom;verticalAlign=top;html=1;outlineConnect=0;" vertex="1" parent="1">
          <mxGeometry x="30" y="300" width="30" height="60" as="geometry" />
        </mxCell>
        <mxCell id="sI_AmpI1C_WUdq5VHhW1-2" value="Чтение рецепта/статьи" style="ellipse;whiteSpace=wrap;html=1;" vertex="1" parent="1">
          <mxGeometry x="170" y="220" width="120" height="80" as="geometry" />
        </mxCell>
        <mxCell id="sI_AmpI1C_WUdq5VHhW1-3" style="edgeStyle=orthogonalEdgeStyle;rounded=1;orthogonalLoop=1;jettySize=auto;html=1;entryX=1;entryY=0.3333333333333333;entryDx=0;entryDy=0;entryPerimeter=0;curved=0;strokeColor=default;endArrow=none;startFill=0;" edge="1" parent="1" source="sI_AmpI1C_WUdq5VHhW1-2" target="sI_AmpI1C_WUdq5VHhW1-1">
          <mxGeometry relative="1" as="geometry">
            <Array as="points">
              <mxPoint x="115" y="250" />
              <mxPoint x="115" y="300" />
              <mxPoint x="60" y="300" />
            </Array>
          </mxGeometry>
        </mxCell>
        <mxCell id="sI_AmpI1C_WUdq5VHhW1-4" value="Регистрация" style="ellipse;whiteSpace=wrap;html=1;" vertex="1" parent="1">
          <mxGeometry x="170" y="360" width="120" height="80" as="geometry" />
        </mxCell>
        <mxCell id="sI_AmpI1C_WUdq5VHhW1-5" style="edgeStyle=orthogonalEdgeStyle;rounded=0;orthogonalLoop=1;jettySize=auto;html=1;entryX=1;entryY=0.3333333333333333;entryDx=0;entryDy=0;entryPerimeter=0;endArrow=none;startFill=0;" edge="1" parent="1" source="sI_AmpI1C_WUdq5VHhW1-4" target="sI_AmpI1C_WUdq5VHhW1-1">
          <mxGeometry relative="1" as="geometry" />
        </mxCell>
        <mxCell id="sI_AmpI1C_WUdq5VHhW1-7" style="edgeStyle=orthogonalEdgeStyle;rounded=0;orthogonalLoop=1;jettySize=auto;html=1;entryX=1;entryY=0.5;entryDx=0;entryDy=0;endArrow=classic;startFill=0;endFill=1;" edge="1" parent="1" source="sI_AmpI1C_WUdq5VHhW1-6" target="sI_AmpI1C_WUdq5VHhW1-2">
          <mxGeometry relative="1" as="geometry" />
        </mxCell>
        <mxCell id="sI_AmpI1C_WUdq5VHhW1-6" value="Поиск и фильрация" style="ellipse;whiteSpace=wrap;html=1;" vertex="1" parent="1">
          <mxGeometry x="390" y="220" width="120" height="80" as="geometry" />
        </mxCell>
        <mxCell id="sI_AmpI1C_WUdq5VHhW1-9" value="Дополнение" style="text;html=1;align=center;verticalAlign=middle;resizable=0;points=[];autosize=1;strokeColor=none;fillColor=none;" vertex="1" parent="1">
          <mxGeometry x="295" y="228" width="90" height="30" as="geometry" />
        </mxCell>
        <mxCell id="sI_AmpI1C_WUdq5VHhW1-11" style="edgeStyle=orthogonalEdgeStyle;rounded=0;orthogonalLoop=1;jettySize=auto;html=1;entryX=1;entryY=0.5;entryDx=0;entryDy=0;endArrow=classic;startFill=0;startArrow=none;endFill=1;" edge="1" parent="1" source="sI_AmpI1C_WUdq5VHhW1-10" target="sI_AmpI1C_WUdq5VHhW1-4">
          <mxGeometry relative="1" as="geometry" />
        </mxCell>
        <mxCell id="sI_AmpI1C_WUdq5VHhW1-10" value="Авторизация" style="ellipse;whiteSpace=wrap;html=1;" vertex="1" parent="1">
          <mxGeometry x="390" y="360" width="120" height="80" as="geometry" />
        </mxCell>
        <mxCell id="sI_AmpI1C_WUdq5VHhW1-12" value="Дополнение" style="text;html=1;align=center;verticalAlign=middle;resizable=0;points=[];autosize=1;strokeColor=none;fillColor=none;" vertex="1" parent="1">
          <mxGeometry x="295" y="360" width="90" height="30" as="geometry" />
        </mxCell>
        <mxCell id="sI_AmpI1C_WUdq5VHhW1-23" style="edgeStyle=orthogonalEdgeStyle;rounded=1;orthogonalLoop=1;jettySize=auto;html=1;curved=0;endArrow=none;startFill=0;" edge="1" parent="1" source="sI_AmpI1C_WUdq5VHhW1-13">
          <mxGeometry relative="1" as="geometry">
            <mxPoint x="70" y="390" as="targetPoint" />
            <Array as="points">
              <mxPoint x="71" y="510" />
            </Array>
          </mxGeometry>
        </mxCell>
        <mxCell id="sI_AmpI1C_WUdq5VHhW1-13" value="Комментирование статьи/рецепта" style="ellipse;whiteSpace=wrap;html=1;" vertex="1" parent="1">
          <mxGeometry x="10" y="480" width="120" height="80" as="geometry" />
        </mxCell>
        <mxCell id="sI_AmpI1C_WUdq5VHhW1-17" style="edgeStyle=orthogonalEdgeStyle;rounded=0;orthogonalLoop=1;jettySize=auto;html=1;" edge="1" parent="1" source="sI_AmpI1C_WUdq5VHhW1-16" target="sI_AmpI1C_WUdq5VHhW1-10">
          <mxGeometry relative="1" as="geometry" />
        </mxCell>
        <mxCell id="sI_AmpI1C_WUdq5VHhW1-16" value="Восстановление пароля" style="ellipse;whiteSpace=wrap;html=1;" vertex="1" parent="1">
          <mxGeometry x="590" y="360" width="120" height="80" as="geometry" />
        </mxCell>
        <mxCell id="sI_AmpI1C_WUdq5VHhW1-26" style="edgeStyle=orthogonalEdgeStyle;rounded=0;orthogonalLoop=1;jettySize=auto;html=1;entryX=0.5;entryY=1;entryDx=0;entryDy=0;" edge="1" parent="1" source="sI_AmpI1C_WUdq5VHhW1-25" target="sI_AmpI1C_WUdq5VHhW1-10">
          <mxGeometry relative="1" as="geometry" />
        </mxCell>
        <mxCell id="sI_AmpI1C_WUdq5VHhW1-25" value="Оценка статьи/рецепта" style="ellipse;whiteSpace=wrap;html=1;" vertex="1" parent="1">
          <mxGeometry x="390" y="505" width="120" height="80" as="geometry" />
        </mxCell>
        <mxCell id="sI_AmpI1C_WUdq5VHhW1-27" value="Дополнение" style="text;html=1;align=center;verticalAlign=middle;resizable=0;points=[];autosize=1;strokeColor=none;fillColor=none;" vertex="1" parent="1">
          <mxGeometry x="470" y="470" width="90" height="30" as="geometry" />
        </mxCell>
        <mxCell id="sI_AmpI1C_WUdq5VHhW1-28" value="Дополнение" style="text;html=1;align=center;verticalAlign=middle;resizable=0;points=[];autosize=1;strokeColor=none;fillColor=none;" vertex="1" parent="1">
          <mxGeometry x="510" y="360" width="90" height="30" as="geometry" />
        </mxCell>
      </root>
    </mxGraphModel>
  </diagram>
</mxfile>
